<svg width="16" height="15" viewBox="0 0 16 15" fill="none" xmlns="http://www.w3.org/2000/svg">
<path d="M14.6721 2.64014L12.7582 0.728082C12.5246 0.494466 12.2119 0.363281 11.8813 0.363281C11.5506 0.363281 11.2379 0.492669 11.0043 0.728082L8.94308 2.7857C8.70946 3.01932 8.57828 3.3338 8.57828 3.66446C8.57828 3.99691 8.70766 4.3078 8.94308 4.54322L10.5532 6.15517C10.1864 7.00982 9.65939 7.78634 9.00058 8.44281C8.34107 9.10592 7.57013 9.62886 6.71474 9.99905L5.10458 8.3871C4.87097 8.15349 4.55828 8.0223 4.22762 8.0223C4.06453 8.0217 3.90295 8.05365 3.75237 8.11629C3.60178 8.17894 3.46521 8.271 3.35066 8.3871L1.28765 10.4447C1.05404 10.6783 0.922852 10.9928 0.922852 11.3235C0.922852 11.6559 1.05224 11.9668 1.28765 12.2022L3.19971 14.1143C3.59866 14.5132 4.14855 14.7415 4.71283 14.7415C4.82963 14.7415 4.94285 14.7325 5.05786 14.7127C7.43715 14.321 9.79847 13.054 11.7051 11.1492C13.61 9.2407 14.8751 6.87938 15.2705 4.49829C15.3837 3.8226 15.1573 3.12714 14.6721 2.64014ZM13.9964 4.28444C13.646 6.40316 12.5066 8.51649 10.7904 10.2327C9.07426 11.9489 6.96273 13.0882 4.84401 13.4386C4.57805 13.4835 4.3049 13.3937 4.11082 13.2014L2.2329 11.3235L4.22403 9.33055L6.37689 11.487L6.39307 11.5032L6.78123 11.3594C7.95817 10.9267 9.02694 10.2432 9.91347 9.35639C10.8 8.46955 11.4831 7.40054 11.9154 6.22346L12.0592 5.83529L9.88833 3.66626L11.8795 1.67333L13.7574 3.55124C13.9515 3.74533 14.0413 4.01848 13.9964 4.28444Z" fill="#20282A" fill-opacity="0.6"/>
</svg>
